<svg width="20" height="20" viewBox="0 0 20 20" fill="none" xmlns="http://www.w3.org/2000/svg">
<g id="icon-left">
<path id="Vector" d="M7.91635 1.93994C6.22677 2.37577 4.74469 3.32161 3.64844 4.61202L7.91635 7.22119V1.93994Z" fill="#3F51B5"/>
<path id="Vector_2" d="M3.58594 15.3184C4.6876 16.6455 6.19635 17.6163 7.91719 18.0605V12.6709L3.58594 15.3184Z" fill="#3F51B5"/>
<path id="Vector_3" d="M1.93945 12.0833C1.94487 12.1049 1.95029 12.1262 1.95612 12.1478L2.06112 12.0833H1.93945Z" fill="white"/>
<path id="Vector_4" d="M16.4907 4.77869C15.3823 3.40327 13.8457 2.39411 12.084 1.93994V7.47202L16.4907 4.77869Z" fill="#3F51B5"/>
<path id="Vector_5" d="M12.084 18.0599C13.8769 17.5974 15.4344 16.5586 16.5469 15.1457L12.084 12.4182V18.0599Z" fill="#3F51B5"/>
<path id="Vector_6" d="M1.97987 7.75879C1.96529 7.81087 1.95279 7.86421 1.93945 7.91671H2.2382L1.97987 7.75879Z" fill="white"/>
<path id="Vector_7" d="M18.229 8.75C18.1894 8.4875 18.1382 8.22958 18.0748 7.97583L16.8086 8.75H18.229Z" fill="white"/>
<path id="Vector_8" d="M2.23786 7.91675H1.93911C1.8687 8.18966 1.81245 8.46716 1.76953 8.75008H3.6012L2.23786 7.91675Z" fill="white"/>
<path id="Vector_9" d="M18.0991 11.9288C18.152 11.7058 18.1941 11.4792 18.2287 11.25H16.9883L18.0991 11.9288Z" fill="white"/>
<path id="Vector_10" d="M3.42411 11.25H1.76953C1.81203 11.5329 1.8687 11.8104 1.93911 12.0833H2.0612L3.42411 11.25Z" fill="white"/>
<path id="Vector_11" d="M8.74935 7.73051V1.77051C8.46643 1.81301 8.18893 1.86967 7.91602 1.94009V7.22134L8.74935 7.73051Z" fill="white"/>
<path id="Vector_12" d="M11.25 11.9092V18.2296C11.5329 18.1871 11.8104 18.1304 12.0833 18.06V12.4183L11.25 11.9092Z" fill="white"/>
<path id="Vector_13" d="M7.91602 12.6708V18.06C8.18893 18.1304 8.46643 18.1866 8.74935 18.2295V12.1616L7.91602 12.6708Z" fill="white"/>
<path id="Vector_14" d="M11.3271 7.78926L11.4454 7.86176L12.0833 7.47176V1.94009C11.8104 1.86967 11.5329 1.81342 11.25 1.77051V7.91551L11.3271 7.78926Z" fill="white"/>
<path id="Vector_15" d="M3.60255 8.74998H7.51505L8.75047 7.99498V7.73081L7.91713 7.22123L3.64922 4.61206C3.29339 5.03123 2.97714 5.48456 2.70839 5.96914L5.85464 7.91664H3.5813L2.20922 7.06373C2.12339 7.29123 2.04672 7.52248 1.98047 7.75873L2.23922 7.91664L3.60255 8.74998Z" fill="white"/>
<path id="Vector_16" d="M11.4453 7.86173L12.8986 8.75006H16.8091L18.0753 7.97589C17.9399 7.43423 17.7524 6.91464 17.5166 6.42089L15.1157 7.91673H12.8424L16.9307 5.37506C16.7928 5.16923 16.6445 4.97131 16.4895 4.77881L12.0832 7.47172L11.4453 7.86173Z" fill="white"/>
<path id="Vector_17" d="M5.85398 7.91674L2.70815 5.96924C2.5144 6.31882 2.35148 6.6859 2.20898 7.06382L3.58065 7.91674H5.85398Z" fill="#E53935"/>
<path id="Vector_18" d="M15.1151 7.91674L17.5164 6.4209C17.3435 6.0584 17.1522 5.70674 16.9305 5.37549L12.8418 7.91674H15.1151Z" fill="#E53935"/>
<path id="Vector_19" d="M11.25 11.25V11.9092L12.0833 12.4183L16.5462 15.1463C16.8679 14.7375 17.1529 14.2992 17.3946 13.8338L14.5713 12.0833H16.8446L17.8692 12.7225C17.9588 12.4633 18.0358 12.1992 18.0996 11.9292L16.9892 11.25H11.25Z" fill="white"/>
<path id="Vector_20" d="M12.8988 8.7499L11.4454 7.86156L11.3271 7.78906L11.25 7.91531V8.7499H12.8988Z" fill="white"/>
<path id="Vector_21" d="M8.75078 12.1617V11.25H3.42578L2.06245 12.0833L1.95703 12.1479C2.1037 12.6983 2.3037 13.2258 2.55411 13.7254L5.13786 12.0833H7.4112L3.1687 14.7637C3.3012 14.9537 3.4387 15.1404 3.5862 15.3183L7.91745 12.6708L8.75078 12.1617Z" fill="white"/>
<path id="Vector_22" d="M7.51367 8.75012H8.74909V7.99512L7.51367 8.75012Z" fill="white"/>
<path id="Vector_23" d="M14.5703 12.0833L17.3932 13.8333C17.5782 13.4774 17.7353 13.1058 17.8682 12.722L16.8436 12.0833H14.5703Z" fill="#E53935"/>
<path id="Vector_24" d="M5.13648 12.0833L2.55273 13.7253C2.73398 14.087 2.93732 14.4345 3.16732 14.7637L7.40982 12.0833H5.13648Z" fill="#E53935"/>
<path id="Vector_25" d="M12.8988 8.75H11.25V11.25H16.9892H18.2296C18.2913 10.8412 18.3333 10.4258 18.3333 10C18.3333 9.57417 18.2913 9.15875 18.2296 8.75H16.8092H12.8988Z" fill="#E53935"/>
<path id="Vector_26" d="M8.74935 11.25V8.75H7.51393H3.60143H1.76977C1.7081 9.15875 1.66602 9.57417 1.66602 10C1.66602 10.4258 1.7081 10.8412 1.76977 11.25H3.42435H8.74935Z" fill="#E53935"/>
<path id="Vector_27" d="M11.25 18.2297V11.9092V11.2501V8.75008V7.9155V1.7705C10.8412 1.70883 10.4258 1.66675 10 1.66675C9.57417 1.66675 9.15875 1.70883 8.75 1.7705V7.7305V7.99466V8.75008V11.2501V12.1617V18.2297C9.15875 18.2913 9.57417 18.3334 10 18.3334C10.4258 18.3334 10.8412 18.2913 11.25 18.2297Z" fill="#E53935"/>
</g>
</svg>
