<svg width="20" height="20" viewBox="0 0 20 20" fill="none" xmlns="http://www.w3.org/2000/svg">
<g id="icon-left">
<path id="Vector" d="M9.99951 1.66675C6.42492 1.66675 3.38492 3.92175 2.20117 7.08341H17.7974C16.6141 3.92175 13.5741 1.66675 9.99951 1.66675Z" fill="white"/>
<path id="Vector_2" d="M18.3327 9.99992C18.3327 8.972 18.1377 7.99242 17.7977 7.08325H2.20102C1.86102 7.99242 1.66602 8.972 1.66602 9.99992C1.66602 11.0278 1.86102 12.0074 2.20102 12.9166H17.7973C18.1377 12.0074 18.3327 11.0278 18.3327 9.99992Z" fill="#1976D2"/>
<path id="Vector_3" d="M17.7978 12.9167H2.20117C3.38492 16.0784 6.42492 18.3334 9.99951 18.3334C13.5741 18.3334 16.6141 16.0784 17.7978 12.9167Z" fill="#FF3D00"/>
<path id="Vector_4" d="M4.16602 5.83325V6.66659C4.16602 9.58325 5.83268 9.99992 5.83268 9.99992C5.83268 9.99992 7.49935 9.58325 7.49935 6.66659V5.83325H4.16602Z" fill="#1976D2"/>
<path id="Vector_5" d="M7.5 5.83325V6.66659C7.5 9.58325 5.83333 9.99992 5.83333 9.99992C5.83333 9.99992 4.16667 9.58325 4.16667 6.66659V5.83325H3.75V6.66659C3.75 9.87117 5.65083 10.3841 5.7325 10.4053L5.83333 10.4295L5.93417 10.4033C6.01542 10.3841 7.91667 9.87117 7.91667 6.66659V5.83325H7.5Z" fill="#FF3D00"/>
<path id="Vector_6" d="M6.66753 7.49992L6.25086 7.91659L5.83419 7.08325L5.41753 7.91659L5.00086 7.49992L4.34961 8.15117C4.77961 9.73117 5.83419 9.99992 5.83419 9.99992C5.83419 9.99992 6.88878 9.73117 7.31836 8.15075L6.66753 7.49992Z" fill="#ECEFF1"/>
</g>
</svg>
